<svg xmlns="http://www.w3.org/2000/svg" viewBox="0 0 284.63 68.33"><defs><style>.cls-1,.cls-2{fill:#fff;}.cls-1{fill-rule:evenodd;}</style></defs><g id="Layer_2" data-name="Layer 2"><g id="Layer_1-2" data-name="Layer 1"><path class="cls-1" d="M174.16,25.49l1.5,15.74a1.75,1.75,0,0,0,.34,1,1.07,1.07,0,0,0,.88.34,1.18,1.18,0,0,0,1.26-1.1l2.39-12.38a5.12,5.12,0,0,1,1.52-3,4.55,4.55,0,0,1,3.11-1,4.34,4.34,0,0,1,3.06,1,5.13,5.13,0,0,1,1.46,3l2.24,12.38a1.17,1.17,0,0,0,1.28,1.1,1.09,1.09,0,0,0,.89-.34,1.91,1.91,0,0,0,.34-1l1.7-15.74h3.68l-1.88,16a9.41,9.41,0,0,1-.42,1.83,4,4,0,0,1-.87,1.45,4.23,4.23,0,0,1-1.4,1,5.58,5.58,0,0,1-2,.34,4.61,4.61,0,0,1-3.07-1,5.09,5.09,0,0,1-1.56-3.12l-2.21-12.32a1.24,1.24,0,0,0-2.45,0l-2.36,12.32A5.46,5.46,0,0,1,180,45a4.64,4.64,0,0,1-3.17,1,5.31,5.31,0,0,1-2-.33,3.56,3.56,0,0,1-1.37-.94,4.6,4.6,0,0,1-.84-1.45,9.14,9.14,0,0,1-.41-1.85l-1.73-16Z"/><path class="cls-1" d="M206.2,23v6.84h5.56q4,0,6,1.83a6.52,6.52,0,0,1,2,5.08v8.87h-3.2V36.79a3.62,3.62,0,0,0-1.13-2.85,5.38,5.38,0,0,0-3.62-1H206.2V45.66H203V23Z"/><path class="cls-1" d="M226.91,36.79h7.42a2.63,2.63,0,0,0,1.81-.51,1.84,1.84,0,0,0,.52-1.39,1.94,1.94,0,0,0-.54-1.43,2.36,2.36,0,0,0-1.7-.54h-5.09a2.37,2.37,0,0,0-1.86.64,2.24,2.24,0,0,0-.56,1.55Zm7.54-6.91a5.55,5.55,0,0,1,4.07,1.27,4.89,4.89,0,0,1,1.24,3.57,4.48,4.48,0,0,1-1.21,3.36c-.82.79-2.2,1.18-4.13,1.18h-7.51V40.4a2.25,2.25,0,0,0,.56,1.57,2.44,2.44,0,0,0,1.86.61H239v3.08h-9.67a7.17,7.17,0,0,1-2.52-.39,4.45,4.45,0,0,1-1.7-1.09,4.09,4.09,0,0,1-1-1.64,6.92,6.92,0,0,1-.31-2.08V35.08a7,7,0,0,1,.31-2.07,4.09,4.09,0,0,1,1-1.66,4.83,4.83,0,0,1,1.7-1.09,7.43,7.43,0,0,1,2.52-.38Z"/><path class="cls-1" d="M246.41,36.79h7.41a2.58,2.58,0,0,0,1.8-.51,1.85,1.85,0,0,0,.53-1.39,1.94,1.94,0,0,0-.54-1.43,2.38,2.38,0,0,0-1.71-.54h-5.08a2.4,2.4,0,0,0-1.87.64,2.27,2.27,0,0,0-.54,1.55Zm7.52-6.91A5.53,5.53,0,0,1,258,31.15a4.86,4.86,0,0,1,1.26,3.57A4.45,4.45,0,0,1,258,38.08c-.82.79-2.2,1.18-4.13,1.18h-7.49V40.4A2.29,2.29,0,0,0,247,42a2.47,2.47,0,0,0,1.87.61h9.66v3.08h-9.66a7.17,7.17,0,0,1-2.52-.39,4.49,4.49,0,0,1-1.71-1.09,4.07,4.07,0,0,1-1-1.64,6.62,6.62,0,0,1-.31-2.08V35.08a6.65,6.65,0,0,1,.31-2.07,4.07,4.07,0,0,1,1-1.66,4.88,4.88,0,0,1,1.71-1.09,7.43,7.43,0,0,1,2.52-.38Z"/><rect class="cls-2" x="263.14" y="23.04" width="3.17" height="22.62"/><path class="cls-1" d="M284,29.88v3h-8.72a2.34,2.34,0,0,0-1.59.45,1.78,1.78,0,0,0-.48,1.35,1.65,1.65,0,0,0,.47,1.27,2.65,2.65,0,0,0,1.77.44h3.71a8.31,8.31,0,0,1,2.71.36,4.26,4.26,0,0,1,1.67,1,3.23,3.23,0,0,1,.85,1.4,6.1,6.1,0,0,1,.24,1.74,6.19,6.19,0,0,1-.28,1.92,3.63,3.63,0,0,1-.91,1.51,4.35,4.35,0,0,1-1.62,1,6.85,6.85,0,0,1-2.36.36h-9.18V42.58h9.18a2.42,2.42,0,0,0,1.58-.4,1.66,1.66,0,0,0,.49-1.33,1.61,1.61,0,0,0-.53-1.36,2.8,2.8,0,0,0-1.72-.4h-3.74a8,8,0,0,1-2.68-.38,4.23,4.23,0,0,1-1.67-1,3.55,3.55,0,0,1-.85-1.48,6.62,6.62,0,0,1-.23-1.73,4.63,4.63,0,0,1,1.19-3.36,5.3,5.3,0,0,1,3.95-1.24Z"/><path class="cls-1" d="M27.35,26.52l-1.62-4.37H21.25l1.56,4.2h3.6A2.32,2.32,0,0,1,27.35,26.52Z"/><path class="cls-1" d="M54.85,22.15v19a1.39,1.39,0,0,1-.34,1,1.11,1.11,0,0,1-.87.37,1.32,1.32,0,0,1-1.32-1L46.49,26.17a8.15,8.15,0,0,0-2-3.26,5.25,5.25,0,0,0-3.7-1.18,5.12,5.12,0,0,0-4,1.44A5.38,5.38,0,0,0,35.49,27v14.2a1.41,1.41,0,0,1-.36,1,1.19,1.19,0,0,1-.9.37,1.29,1.29,0,0,1-.81-.26,1.76,1.76,0,0,1-.5-.73l-3.31-8.93-1.49-4A1.84,1.84,0,0,1,27,29.7l-2.53,1.08,1.31,3.51L28.62,42l.06.18a7.9,7.9,0,0,0,2,3.25,3.9,3.9,0,0,0,1.22.77,6.45,6.45,0,0,0,2.46.43,5.22,5.22,0,0,0,4-1.45,5.39,5.39,0,0,0,1.33-3.82V27.17a1.45,1.45,0,0,1,.34-1,1.14,1.14,0,0,1,.88-.38,1.27,1.27,0,0,1,.83.29,1.83,1.83,0,0,1,.52.74l5.83,15.35a8,8,0,0,0,2,3.25,5.14,5.14,0,0,0,3.68,1.2,5.23,5.23,0,0,0,4-1.45,5.39,5.39,0,0,0,1.33-3.82V22.15Z"/><path class="cls-1" d="M89.34,25.49A5.2,5.2,0,0,1,93,26.64a4.26,4.26,0,0,1,1.24,3.27,4.87,4.87,0,0,1-.81,2.88A5.46,5.46,0,0,1,91,34.63L80,39.32a1.79,1.79,0,0,0-.75.6,1.6,1.6,0,0,0-.26.89,1.3,1.3,0,0,0,.37,1,1.6,1.6,0,0,0,1.12.35h13.3v3.53H80.25a5.16,5.16,0,0,1-3.65-1.15,4.27,4.27,0,0,1-1.22-3.28,4.84,4.84,0,0,1,.8-2.87,5.48,5.48,0,0,1,2.46-1.85l10.94-4.69a1.51,1.51,0,0,0,1-1.5,1.3,1.3,0,0,0-.37-1A1.65,1.65,0,0,0,89.1,29h-13V25.49Z"/><path class="cls-1" d="M103.89,32.92a3.7,3.7,0,0,0-3,1.14,5.86,5.86,0,0,0-1,3.71,5.77,5.77,0,0,0,1,3.69,3.69,3.69,0,0,0,3,1.12h2.72a3.71,3.71,0,0,0,3-1.12,5.78,5.78,0,0,0,.94-3.69,5.86,5.86,0,0,0-.94-3.71,3.72,3.72,0,0,0-3-1.14Zm3-3a6.58,6.58,0,0,1,5,1.95q1.84,2,1.85,5.94t-1.85,5.95a6.58,6.58,0,0,1-5,1.94h-3.33a6.54,6.54,0,0,1-5-1.94q-1.84-1.95-1.84-5.95t1.84-6a6.57,6.57,0,0,1,5-1.94Z"/><path class="cls-1" d="M124,32.92a3.68,3.68,0,0,0-3,1.14,5.8,5.8,0,0,0-1,3.71,5.71,5.71,0,0,0,1,3.69,3.68,3.68,0,0,0,3,1.12h2.72a3.68,3.68,0,0,0,3-1.12,5.71,5.71,0,0,0,1-3.69,5.8,5.8,0,0,0-1-3.71,3.68,3.68,0,0,0-3-1.14Zm3-3a6.51,6.51,0,0,1,5,1.95c1.24,1.31,1.87,3.29,1.87,5.94s-.63,4.65-1.87,5.95a6.51,6.51,0,0,1-5,1.94h-3.32a6.51,6.51,0,0,1-5-1.94q-1.84-1.95-1.85-5.95t1.85-6a6.54,6.54,0,0,1,5-1.94Z"/><path class="cls-1" d="M139.67,45.66H135.9l6.25-16.8a6.62,6.62,0,0,1,1.66-2.73,4.32,4.32,0,0,1,3.09-1,4.42,4.42,0,0,1,3.37,1.21,4.52,4.52,0,0,1,1.12,3.19V41.45a1.13,1.13,0,0,0,.28.81.91.91,0,0,0,.73.32,1.13,1.13,0,0,0,1.14-.83l4.9-12.89a6.62,6.62,0,0,1,1.66-2.73,4.35,4.35,0,0,1,3.1-1,4.39,4.39,0,0,1,3.36,1.21,4.56,4.56,0,0,1,1.12,3.19V45.66h-3.56v-16a1.24,1.24,0,0,0-.28-.85.93.93,0,0,0-.73-.31,1.05,1.05,0,0,0-.68.23,1.45,1.45,0,0,0-.43.62l-4.91,12.9A6.6,6.6,0,0,1,155.42,45a4.39,4.39,0,0,1-3.11,1A4.32,4.32,0,0,1,149,44.81a4.58,4.58,0,0,1-1.11-3.22V29.7a1.2,1.2,0,0,0-.29-.85,1,1,0,0,0-.76-.31,1.06,1.06,0,0,0-.69.23,1.88,1.88,0,0,0-.42.62Z"/><path class="cls-1" d="M28.59,26.78A1.5,1.5,0,0,1,29,27.92a2.28,2.28,0,0,1-.1.66l1.48,4a5.49,5.49,0,0,0,2.92-5.17,5.09,5.09,0,0,0-1.47-3.9,6.21,6.21,0,0,0-4.36-1.37h-1l1.62,4.37A1.36,1.36,0,0,1,28.59,26.78Z"/><path class="cls-1" d="M27.87,42.16,27.8,42H15.34A1.86,1.86,0,0,1,14,41.55a1.53,1.53,0,0,1-.44-1.14,1.85,1.85,0,0,1,.32-1.07,2.12,2.12,0,0,1,.89-.71L25,34.29l-1.31-3.51L13.13,35.29a6.51,6.51,0,0,0-2.92,2.18,5.89,5.89,0,0,0-1,3.44,5.11,5.11,0,0,0,1.46,3.9,6.16,6.16,0,0,0,4.34,1.37h16a3.74,3.74,0,0,1-1.21-.77A7.8,7.8,0,0,1,27.87,42.16Z"/><polygon class="cls-1" points="10.11 22.15 10.11 26.35 21.99 26.35 20.43 22.15 10.11 22.15"/><path class="cls-1" d="M34.17,4.52A29.65,29.65,0,1,0,63.81,34.17,29.67,29.67,0,0,0,34.17,4.52Zm0,63.81A34.17,34.17,0,1,1,68.33,34.17,34.21,34.21,0,0,1,34.17,68.33Z"/></g></g></svg>