<svg xmlns="http://www.w3.org/2000/svg" viewBox="0 0 1245.77 660.96"><defs><style>.cls-1,.cls-2{fill:#1976d2;}.cls-1{fill-rule:evenodd;}</style></defs><g id="Layer_2" data-name="Layer 2"><g id="Layer_1-2" data-name="Layer 1"><path class="cls-1" d="M588.11,538.71,597,632.45a10.82,10.82,0,0,0,2,6c1.16,1.38,2.9,2,5.28,2,4.12,0,6.61-2.14,7.49-6.55L626,560.24c1.52-7.83,4.53-13.75,9.05-17.7s10.69-6,18.52-6,13.88,2,18.23,6,7.2,9.87,8.65,17.7l13.35,73.67c.69,4.41,3.25,6.55,7.61,6.55,2.37,0,4.17-.64,5.29-2a10.9,10.9,0,0,0,2-6l10.16-93.74h21.89l-11.2,95a53.82,53.82,0,0,1-2.5,10.92,24,24,0,0,1-5.17,8.65,24.62,24.62,0,0,1-8.35,5.64,33,33,0,0,1-12.14,2c-7.55,0-13.71-1.92-18.28-5.8s-7.73-10-9.29-18.58l-13.12-73.32c-.76-4.29-3.2-6.39-7.31-6.39s-6.51,2.1-7.32,6.39l-14.05,73.32c-1.69,8.18-4.76,14.29-9.35,18.34s-10.85,6-18.92,6A31.07,31.07,0,0,1,592,659a20.6,20.6,0,0,1-8.13-5.57,27,27,0,0,1-5-8.65,50.21,50.21,0,0,1-2.44-11l-10.33-95Z"/><path class="cls-1" d="M778.87,524.13v40.75H812q23.85,0,35.58,10.86c7.84,7.19,11.72,17.3,11.72,30.25v52.83h-19V606c0-7.25-2.2-12.89-6.74-17s-11.66-6-21.53-6H778.87v75.82H760V524.13Z"/><path class="cls-1" d="M902.17,606h44.12c5.1,0,8.71-1,10.79-3a11,11,0,0,0,3.13-8.25,11.52,11.52,0,0,0-3.25-8.53c-2.08-2.09-5.51-3.19-10.09-3.19h-30.3c-5.23,0-8.89,1.28-11.09,3.77a13.32,13.32,0,0,0-3.31,9.23Zm44.88-41.11q16.71,0,24.19,7.55t7.43,21.25q0,13-7.25,20c-4.87,4.7-13.07,7-24.55,7h-44.7v6.79a13.41,13.41,0,0,0,3.31,9.35c2.2,2.37,5.86,3.59,11.09,3.59h57.52v18.36H916.57a42.56,42.56,0,0,1-15-2.32A26.87,26.87,0,0,1,891.42,650a24.44,24.44,0,0,1-5.79-9.75,41.89,41.89,0,0,1-1.8-12.36V595.82a42.07,42.07,0,0,1,1.8-12.3,24.61,24.61,0,0,1,5.79-9.87,27.33,27.33,0,0,1,10.11-6.49,43.56,43.56,0,0,1,15-2.28Z"/><path class="cls-1" d="M1018.22,606h44.1c5.12,0,8.71-1,10.75-3a10.91,10.91,0,0,0,3.13-8.25,11.48,11.48,0,0,0-3.19-8.53c-2.14-2.09-5.51-3.19-10.16-3.19H1032.6c-5.21,0-8.93,1.28-11.14,3.77a13.6,13.6,0,0,0-3.24,9.23ZM1063,564.88q16.71,0,24.2,7.55t7.49,21.25q0,13-7.31,20c-4.87,4.7-13.06,7-24.56,7h-44.63v6.79a13.7,13.7,0,0,0,3.24,9.35c2.21,2.37,5.93,3.59,11.14,3.59h57.48v18.36H1032.6a42.49,42.49,0,0,1-15-2.32,27,27,0,0,1-10.17-6.51,24.35,24.35,0,0,1-5.75-9.75,40,40,0,0,1-1.79-12.36V595.82a40.16,40.16,0,0,1,1.79-12.3,24.53,24.53,0,0,1,5.75-9.87,27.49,27.49,0,0,1,10.17-6.49,43.47,43.47,0,0,1,15-2.28Z"/><rect class="cls-2" x="1117.83" y="524.13" width="18.87" height="134.69"/><path class="cls-1" d="M1242.05,564.88V583h-52c-4.41,0-7.55.93-9.47,2.67s-2.84,4.47-2.84,8c0,3.31.93,5.86,2.78,7.55s5.36,2.61,10.57,2.61h22.07c6.55,0,11.89.69,16.14,2.15a25.32,25.32,0,0,1,9.93,5.69,19.58,19.58,0,0,1,5.09,8.35,39.32,39.32,0,0,1-.28,21.77,21.64,21.64,0,0,1-5.39,9,25.35,25.35,0,0,1-9.65,5.85,40.16,40.16,0,0,1-14,2.16h-54.63V640.46H1215c4.41,0,7.55-.74,9.4-2.38s2.9-4.23,2.9-7.89c0-3.83-1-6.5-3.13-8.12s-5.52-2.38-10.23-2.38h-22.29c-6.49,0-11.83-.76-16-2.26a24.81,24.81,0,0,1-9.93-6,21.22,21.22,0,0,1-5-8.81,38.33,38.33,0,0,1-1.38-10.28c0-8.41,2.32-15.09,7.07-20s12.6-7.38,23.51-7.38Z"/><path class="cls-1" d="M573.83,188.08l-11.49-30.94H530.53l11.08,29.78h25.55A17.08,17.08,0,0,1,573.83,188.08Z"/><path class="cls-1" d="M768.88,157.14V291.93a10,10,0,0,1-2.43,7,8,8,0,0,1-6.16,2.62c-4.58,0-7.67-2.33-9.34-7L709.56,185.64q-5.13-14.62-14.17-23.11c-6-5.63-14.8-8.41-26.24-8.41-12.65,0-22.06,3.36-28.27,10.21s-9.35,15.74-9.35,26.88V291.93a9.82,9.82,0,0,1-2.55,7,8.42,8.42,0,0,1-6.33,2.62,9.18,9.18,0,0,1-5.8-1.86,12.5,12.5,0,0,1-3.49-5.17l-23.51-63.34L579.28,202.7c-1.22,3.61-3.87,6.27-8.11,8l-17.89,7.65,9.28,24.91,20.28,54.51.45,1.27c3.38,9.76,8,17.48,14,23.11a28.27,28.27,0,0,0,8.65,5.4,45.35,45.35,0,0,0,17.48,3.07c12.66,0,22.11-3.43,28.44-10.28s9.46-15.84,9.46-27.1V192.72a10.44,10.44,0,0,1,2.39-7.2,8.1,8.1,0,0,1,6.21-2.67,9.05,9.05,0,0,1,5.92,2,13,13,0,0,1,3.66,5.28L720.88,299c3.36,9.76,8.07,17.48,14,23.11s14.69,8.47,26.13,8.47q18.9,0,28.38-10.28t9.47-27.1V157.14Z"/><path class="cls-1" d="M83.08,538.71c9.62,0,16.89,2.26,21.82,6.85s7.38,11,7.38,19.5c0,6.85-1.64,12.6-4.83,17.13s-8,8.24-14.39,11L27.57,621.09a10.37,10.37,0,0,0-4.46,3.53A9.33,9.33,0,0,0,21.54,630a7.54,7.54,0,0,0,2.21,5.75c1.44,1.39,3.71,2.09,6.67,2.09H109.6v21H29c-9.57,0-16.84-2.28-21.72-6.86S0,640.88,0,632.45c0-6.85,1.56-12.58,4.76-17.12s8.06-8.25,14.64-11l65.12-27.92c4.13-1.69,6.21-4.66,6.21-9a7.78,7.78,0,0,0-2.2-5.69c-1.52-1.38-3.77-2.07-6.85-2.07H4.24v-21Z"/><path class="cls-1" d="M169.74,583c-8.18,0-14.16,2.27-17.87,6.78s-5.63,11.85-5.63,22.08,1.91,17.52,5.63,21.93,9.69,6.67,17.87,6.67h16.2c8.18,0,14.17-2.2,17.88-6.67s5.63-11.72,5.63-21.93-1.91-17.6-5.63-22.08-9.7-6.78-17.88-6.78Zm18-18.12c12.43,0,22.35,3.83,29.72,11.62s11,19.56,11,35.36-3.72,27.68-11,35.39-17.29,11.57-29.72,11.57H168q-18.82,0-29.79-11.57t-11-35.39q0-23.88,11-35.41c7.32-7.74,17.24-11.57,29.79-11.57Z"/><path class="cls-1" d="M289.15,583c-8.18,0-14.16,2.27-17.88,6.78s-5.63,11.85-5.63,22.08,1.92,17.52,5.63,21.93,9.7,6.67,17.88,6.67h16.2c8.19,0,14.16-2.2,17.88-6.67s5.63-11.72,5.63-21.93-1.92-17.6-5.63-22.08S313.54,583,305.35,583Zm18-18.12c12.42,0,22.35,3.83,29.66,11.62s11.09,19.56,11.09,35.36-3.72,27.68-11.09,35.39-17.24,11.57-29.66,11.57h-19.8c-12.54,0-22.53-3.84-29.78-11.57s-11-19.49-11-35.39,3.65-27.71,11-35.41,17.24-11.57,29.78-11.57Z"/><path class="cls-1" d="M382.73,658.82H360.32l37.21-100c2.38-6.85,5.63-12.3,9.87-16.25s10.33-6,18.4-6c8.88,0,15.56,2.43,20,7.2s6.68,11.15,6.68,19v71a7,7,0,0,0,1.67,4.88,5.48,5.48,0,0,0,4.36,1.85c3.31,0,5.57-1.62,6.79-4.93l29.14-76.74c2.39-6.85,5.7-12.3,9.93-16.25s10.34-6,18.41-6c8.87,0,15.56,2.43,20,7.2s6.69,11.15,6.69,19v96.08H528.33v-95a7.2,7.2,0,0,0-1.7-5,5.56,5.56,0,0,0-4.35-1.86,6.06,6.06,0,0,0-4,1.4,8.61,8.61,0,0,0-2.61,3.71l-29.21,76.75c-2.37,6.85-5.68,12.3-9.93,16.25s-10.45,6-18.51,6c-8.87,0-15.56-2.44-19.92-7.2s-6.61-11.2-6.61-19.15V563.78a7,7,0,0,0-1.74-5,5.84,5.84,0,0,0-4.47-1.86,6.11,6.11,0,0,0-4.11,1.4,10.26,10.26,0,0,0-2.51,3.71Z"/><path class="cls-1" d="M582.66,189.94a10.69,10.69,0,0,1,3.13,8.07,14.82,14.82,0,0,1-.7,4.69l10.51,28.45a41.69,41.69,0,0,0,13.94-12.31c4.52-6.49,6.79-14.56,6.79-24.37q0-17.86-10.46-27.64c-7-6.44-17.3-9.69-30.94-9.69h-6.79l11.5,30.94A11,11,0,0,1,582.66,189.94Z"/><path class="cls-1" d="M577.48,299l-.45-1.27H488.61c-4.17,0-7.36-1-9.46-3a10.75,10.75,0,0,1-3.13-8.06,13,13,0,0,1,2.27-7.61A15,15,0,0,1,484.6,274l72.17-30.76-9.29-24.91L473,250.3q-13.94,5.76-20.72,15.5c-4.53,6.51-6.85,14.64-6.85,24.39,0,12,3.48,21.13,10.39,27.63s17.18,9.7,30.76,9.7H600.13a27.17,27.17,0,0,1-8.59-5.4Q582.55,313.68,577.48,299Z"/><polygon class="cls-1" points="451.52 157.14 451.52 186.92 535.82 186.92 524.73 157.14 451.52 157.14"/><path class="cls-1" d="M622.19,32c-115.93,0-210.25,94.34-210.25,210.31s94.32,210.27,210.25,210.27,210.27-94.34,210.27-210.27S738.12,32,622.19,32Zm0,452.62c-133.63,0-242.36-108.72-242.36-242.31S488.56,0,622.19,0s242.3,108.72,242.3,242.35S755.82,484.66,622.19,484.66Z"/></g></g></svg>