<svg xmlns="http://www.w3.org/2000/svg" viewBox="0 0 605.27 129.4"><defs><style>.cls-1{font-size:31px;fill:#efefef;font-family:MyriadPro-It, Myriad Pro;font-style:italic;}.cls-2{letter-spacing:-0.01em;}.cls-3{letter-spacing:0.03em;}.cls-4{letter-spacing:0em;}.cls-5{letter-spacing:-0.01em;}.cls-6,.cls-7{fill:#fff;}.cls-6{fill-rule:evenodd;}</style></defs><g id="Layer_2" data-name="Layer 2"><g id="Layer_1-2" data-name="Layer 1"><text class="cls-1" transform="translate(389.27 121.65)"><tspan class="cls-2">C</tspan><tspan x="16.99" y="0">e</tspan><tspan class="cls-3" x="31.03" y="0">r</tspan><tspan class="cls-4" x="41.69" y="0">tified used </tspan><tspan class="cls-5" x="173.75" y="0">c</tspan><tspan x="186.4" y="0">ar</tspan></text><path class="cls-6" d="M356.75,42l3.37,35.41a4,4,0,0,0,.77,2.25,2.37,2.37,0,0,0,2,.76A2.65,2.65,0,0,0,365.7,78h0l5.38-27.85a11.52,11.52,0,0,1,3.42-6.75,10.23,10.23,0,0,1,7-2.25,9.75,9.75,0,0,1,6.89,2.25,11.54,11.54,0,0,1,3.28,6.75l5,27.85a2.63,2.63,0,0,0,2.78,2.48h.1a2.42,2.42,0,0,0,2-.76,4.22,4.22,0,0,0,.77-2.25L406.17,42h8.28l-4.23,36a20.84,20.84,0,0,1-.94,4.12,8.92,8.92,0,0,1-2,3.26,9.38,9.38,0,0,1-3.15,2.25,12.53,12.53,0,0,1-4.5.77,10.37,10.37,0,0,1-6.9-2.25,11.44,11.44,0,0,1-3.51-7l-5-27.72a2.79,2.79,0,0,0-5.51,0l-5.31,27.72a12.3,12.3,0,0,1-3.57,6.77,10.46,10.46,0,0,1-7.14,2.25,12,12,0,0,1-4.49-.74,8,8,0,0,1-3.09-2.12,10.54,10.54,0,0,1-1.89-3.26,20.49,20.49,0,0,1-.92-4.16l-3.89-36Z"/><path class="cls-6" d="M428.83,36.43V51.81h12.51q9,0,13.49,4.12a14.66,14.66,0,0,1,4.5,11.43v20h-7.2V67.45A8.09,8.09,0,0,0,449.59,61a12.08,12.08,0,0,0-8.14-2.25H428.83V87.4h-7.2v-51Z"/><path class="cls-6" d="M475.42,67.45h16.69a5.94,5.94,0,0,0,4.07-1.15,4.11,4.11,0,0,0,1.17-3.12A4.36,4.36,0,0,0,496.14,60a5.33,5.33,0,0,0-3.83-1.22H480.86a5.33,5.33,0,0,0-4.18,1.44,5,5,0,0,0-1.26,3.49Zm17-15.55a12.53,12.53,0,0,1,9.16,2.86,11,11,0,0,1,2.79,8,10.06,10.06,0,0,1-2.73,7.56c-1.84,1.78-4.94,2.66-9.29,2.66H475.42v2.56a5,5,0,0,0,1.26,3.53,5.52,5.52,0,0,0,4.18,1.38h21.76V87.4H480.86a16.12,16.12,0,0,1-5.67-.87,10.23,10.23,0,0,1-3.82-2.45,9.32,9.32,0,0,1-2.25-3.69,15.53,15.53,0,0,1-.7-4.68V63.6a15.55,15.55,0,0,1,.7-4.65,9.21,9.21,0,0,1,2.25-3.74,10.88,10.88,0,0,1,3.82-2.45,16.83,16.83,0,0,1,5.67-.86Z"/><path class="cls-6" d="M519.29,67.45H536a5.78,5.78,0,0,0,4-1.15,4.17,4.17,0,0,0,1.19-3.12A4.37,4.37,0,0,0,540,60a5.35,5.35,0,0,0-3.84-1.22H524.71a5.43,5.43,0,0,0-4.21,1.44,5.11,5.11,0,0,0-1.21,3.49ZM536.2,51.9a12.48,12.48,0,0,1,9.16,2.86,11,11,0,0,1,2.84,8,10.06,10.06,0,0,1-2.84,7.56c-1.84,1.78-5,2.66-9.29,2.66H519.22v2.56a5.15,5.15,0,0,0,1.39,3.6,5.55,5.55,0,0,0,4.21,1.37h21.73v6.93H524.82a16.06,16.06,0,0,1-5.67-.88,10.1,10.1,0,0,1-3.85-2.45,9.12,9.12,0,0,1-2.24-3.69,14.56,14.56,0,0,1-.7-4.68V63.6a14.65,14.65,0,0,1,.7-4.65,9.18,9.18,0,0,1,2.24-3.74,11,11,0,0,1,3.85-2.45,16.83,16.83,0,0,1,5.67-.86Z"/><rect class="cls-7" x="556.92" y="36.52" width="7.13" height="50.89"/><path class="cls-6" d="M603.85,51.9v6.75H584.23a5.26,5.26,0,0,0-3.57,1,4,4,0,0,0-1.08,3,3.72,3.72,0,0,0,1.06,2.86,6,6,0,0,0,4,1H593a18.76,18.76,0,0,1,6.1.81,9.65,9.65,0,0,1,3.76,2.25,7.36,7.36,0,0,1,1.91,3.15,13.62,13.62,0,0,1,.54,3.91,14,14,0,0,1-.63,4.32,8.14,8.14,0,0,1-2,3.4A9.76,9.76,0,0,1,599,86.64a15.47,15.47,0,0,1-5.31.81H573v-7h20.65a5.44,5.44,0,0,0,3.55-.9,3.77,3.77,0,0,0,1.11-3,3.62,3.62,0,0,0-1.2-3.06,6.32,6.32,0,0,0-3.87-.9h-8.41a18.15,18.15,0,0,1-6-.85A9.57,9.57,0,0,1,575,69.52a8,8,0,0,1-1.91-3.33,15.06,15.06,0,0,1-.52-3.89,10.44,10.44,0,0,1,2.68-7.56A11.93,11.93,0,0,1,584.17,52Z"/><path class="cls-6" d="M49.56,48.05l-2.94-7.91H38.51l2.82,7.61h6.53A4.3,4.3,0,0,1,49.56,48.05Z"/><path class="cls-6" d="M99.37,40.14V74.55a2.52,2.52,0,0,1-.62,1.82,2,2,0,0,1-1.57.67,2.38,2.38,0,0,1-2.39-1.82L84.23,47.42a14.69,14.69,0,0,0-3.63-5.9,9.46,9.46,0,0,0-6.7-2.14A9.26,9.26,0,0,0,66.66,42a9.76,9.76,0,0,0-2.36,6.93V74.65a2.53,2.53,0,0,1-.65,1.81,2.17,2.17,0,0,1-1.63.67,2.41,2.41,0,0,1-1.47-.47,3.18,3.18,0,0,1-.9-1.33l-6-16.17L51,51.91a3.27,3.27,0,0,1-2,1.9l-4.58,2,2.37,6.36,5.15,14,.11.33a14.35,14.35,0,0,0,3.62,5.89A6.89,6.89,0,0,0,57.8,83.7a11.69,11.69,0,0,0,4.46.78,9.45,9.45,0,0,0,7.24-2.63,9.72,9.72,0,0,0,2.41-6.91V49.23a2.61,2.61,0,0,1,.62-1.81,2.08,2.08,0,0,1,1.59-.69,2.28,2.28,0,0,1,1.5.53,3.36,3.36,0,0,1,.95,1.34L87.13,76.4a14.35,14.35,0,0,0,3.62,5.89,9.32,9.32,0,0,0,6.66,2.17,9.48,9.48,0,0,0,7.25-2.62,9.8,9.8,0,0,0,2.41-6.92V40.14Z"/><path class="cls-6" d="M165.93,42a11.71,11.71,0,0,1,8.24,2.59A9.54,9.54,0,0,1,177,52a10.94,10.94,0,0,1-1.82,6.48,12.28,12.28,0,0,1-5.46,4.14L144.92,73.14a4.07,4.07,0,0,0-1.69,1.35,3.56,3.56,0,0,0-.58,2,2.88,2.88,0,0,0,.83,2.25,3.55,3.55,0,0,0,2.52.79h29.92v7.94H145.48a11.57,11.57,0,0,1-8.21-2.59,9.55,9.55,0,0,1-2.74-7.37,10.81,10.81,0,0,1,1.8-6.46,12.27,12.27,0,0,1,5.53-4.16l24.61-10.55A3.41,3.41,0,0,0,168.72,53a3,3,0,0,0-.83-2.25,3.75,3.75,0,0,0-2.5-.78H136.15V42Z"/><path class="cls-6" d="M198.66,58.74a8.32,8.32,0,0,0-6.74,2.57,13.15,13.15,0,0,0-2.25,8.34A12.93,12.93,0,0,0,191.92,78a8.29,8.29,0,0,0,6.74,2.52h6.12A8.38,8.38,0,0,0,211.53,78a13.06,13.06,0,0,0,2.12-8.31,13.16,13.16,0,0,0-2.12-8.34,8.37,8.37,0,0,0-6.75-2.57ZM205.41,52a14.82,14.82,0,0,1,11.25,4.39q4.14,4.5,4.16,13.36t-4.16,13.39a14.78,14.78,0,0,1-11.25,4.36h-7.49a14.71,14.71,0,0,1-11.25-4.36q-4.14-4.38-4.14-13.39t4.14-13.49a14.79,14.79,0,0,1,11.25-4.37Z"/><path class="cls-6" d="M243.9,58.74a8.27,8.27,0,0,0-6.74,2.57,13,13,0,0,0-2.25,8.34A12.79,12.79,0,0,0,237.16,78a8.29,8.29,0,0,0,6.74,2.52H250A8.3,8.3,0,0,0,256.77,78,12.85,12.85,0,0,0,259,69.65a13,13,0,0,0-2.25-8.34A8.3,8.3,0,0,0,250,58.74ZM250.65,52a14.66,14.66,0,0,1,11.25,4.39c2.79,2.95,4.21,7.4,4.21,13.36s-1.42,10.47-4.21,13.39a14.65,14.65,0,0,1-11.25,4.36h-7.47a14.62,14.62,0,0,1-11.24-4.36q-4.14-4.38-4.17-13.39t4.17-13.49a14.68,14.68,0,0,1,11.24-4.37Z"/><path class="cls-6" d="M279.16,87.4h-8.48l14.06-37.79a14.8,14.8,0,0,1,3.73-6.14,9.72,9.72,0,0,1,6.95-2.25A9.93,9.93,0,0,1,303,43.94a10.17,10.17,0,0,1,2.52,7.18V77.93a2.61,2.61,0,0,0,.63,1.83,2.08,2.08,0,0,0,1.65.72,2.55,2.55,0,0,0,2.56-1.87l11-29a14.93,14.93,0,0,1,3.74-6.14,9.75,9.75,0,0,1,7-2.25,9.85,9.85,0,0,1,7.56,2.72,10.26,10.26,0,0,1,2.52,7.18V87.4h-8v-36a2.76,2.76,0,0,0-.63-1.91,2.09,2.09,0,0,0-1.64-.7,2.35,2.35,0,0,0-1.53.52,3.31,3.31,0,0,0-1,1.39l-11,29a15,15,0,0,1-3.76,6.19,9.88,9.88,0,0,1-7,2.25,9.72,9.72,0,0,1-7.44-2.68,10.26,10.26,0,0,1-2.5-7.24V51.5a2.71,2.71,0,0,0-.65-1.91,2.26,2.26,0,0,0-1.71-.7,2.36,2.36,0,0,0-1.55.52,4.15,4.15,0,0,0-.95,1.39Z"/><path class="cls-6" d="M51.8,48.53a2.71,2.71,0,0,1,.75,2.06,4.41,4.41,0,0,1-.18,1.2L55.05,59a10,10,0,0,0,5.29-9.36,9.23,9.23,0,0,0-2.67-7.07,11.22,11.22,0,0,0-7.89-2.48H48L50.9,48A2.27,2.27,0,0,1,51.8,48.53Z"/><path class="cls-6" d="M50.5,76.38l-.13-.29H27.8a3.35,3.35,0,0,1-2.42-.81,2.8,2.8,0,0,1-.8-2.07,3.32,3.32,0,0,1,.58-1.93A3.82,3.82,0,0,1,26.77,70L45.3,62.13l-2.37-6.36L23.8,63.94a11.86,11.86,0,0,0-5.29,4,10.71,10.71,0,0,0-1.81,6.23,9.24,9.24,0,0,0,2.65,7.06,11.18,11.18,0,0,0,7.86,2.49h29A6.72,6.72,0,0,1,54,82.27,14.16,14.16,0,0,1,50.5,76.38Z"/><polygon class="cls-6" points="18.33 40.14 18.33 47.75 39.85 47.75 37.02 40.14 18.33 40.14"/><path class="cls-6" d="M61.91,8.21A53.71,53.71,0,1,0,115.6,61.93v0A53.74,53.74,0,0,0,61.91,8.21Zm0,115.58a61.9,61.9,0,1,1,61.88-61.91v0A62,62,0,0,1,61.91,123.79Z"/></g></g></svg>