<svg xmlns="http://www.w3.org/2000/svg" viewBox="0 0 439.71 105.44"><defs><style>.cls-1{font-size:24px;fill:#efefef;font-family:MyriadPro-It, Myriad Pro;font-style:italic;}.cls-2{letter-spacing:-0.01em;}.cls-3{letter-spacing:0em;}.cls-4{letter-spacing:0.03em;}.cls-5{letter-spacing:-0.01em;}.cls-6,.cls-7{fill:#fff;}.cls-6{fill-rule:evenodd;}</style></defs><g id="Layer_2" data-name="Layer 2"><g id="Layer_1-2" data-name="Layer 1"><text class="cls-1" transform="translate(274.57 98.75)"><tspan class="cls-2">C</tspan><tspan class="cls-3" x="13.15" y="0">e</tspan><tspan class="cls-4" x="24.02" y="0">r</tspan><tspan x="32.28" y="0">tified used </tspan><tspan class="cls-5" x="134.52" y="0">c</tspan><tspan x="144.31" y="0">ar</tspan></text><g id="Layer_2-2" data-name="Layer 2"><g id="Layer_1-2-2" data-name="Layer 1-2"><path class="cls-6" d="M268.73,39.34,271,63.63a2.68,2.68,0,0,0,.53,1.54,1.63,1.63,0,0,0,1.35.53A1.83,1.83,0,0,0,274.87,64h0l3.69-19.1a7.85,7.85,0,0,1,2.34-4.63,7,7,0,0,1,4.8-1.54,6.7,6.7,0,0,1,4.72,1.54,7.87,7.87,0,0,1,2.25,4.63L296.13,64a1.79,1.79,0,0,0,1.9,1.7h.07a1.71,1.71,0,0,0,1.38-.53,2.93,2.93,0,0,0,.52-1.54l2.62-24.29h5.68L305.4,64a14.25,14.25,0,0,1-.65,2.82,6.09,6.09,0,0,1-1.34,2.24,6.47,6.47,0,0,1-2.16,1.54,8.54,8.54,0,0,1-3.08.53,7.17,7.17,0,0,1-4.74-1.54A7.86,7.86,0,0,1,291,64.8l-3.41-19a1.91,1.91,0,0,0-3.78,0l-3.64,19a8.44,8.44,0,0,1-2.45,4.65A7.16,7.16,0,0,1,272.85,71a8.16,8.16,0,0,1-3.09-.51A5.51,5.51,0,0,1,267.65,69a7,7,0,0,1-1.3-2.24,13.82,13.82,0,0,1-.63-2.85l-2.67-24.69Z"/><path class="cls-6" d="M318.16,35.5V46.06h8.58q6.17,0,9.26,2.82a10.06,10.06,0,0,1,3.08,7.84V70.4h-4.93V56.78a5.58,5.58,0,0,0-1.75-4.4,8.3,8.3,0,0,0-5.58-1.54h-8.66V70.46h-4.94v-35Z"/><path class="cls-6" d="M350.12,56.78h11.44a4.08,4.08,0,0,0,2.8-.79,2.88,2.88,0,0,0,.8-2.14,3.05,3.05,0,0,0-.83-2.21,3.65,3.65,0,0,0-2.63-.83h-7.85a3.66,3.66,0,0,0-2.87,1,3.42,3.42,0,0,0-.86,2.39Zm11.63-10.66a8.53,8.53,0,0,1,6.28,2,7.51,7.51,0,0,1,1.91,5.5,6.91,6.91,0,0,1-1.87,5.19c-1.26,1.22-3.39,1.82-6.37,1.82H350.12v1.76a3.42,3.42,0,0,0,.86,2.42,3.76,3.76,0,0,0,2.87.94h14.92v4.75H353.85a11,11,0,0,1-3.89-.6,6.74,6.74,0,0,1-2.62-1.68,6.25,6.25,0,0,1-1.54-2.53,10.28,10.28,0,0,1-.48-3.21v-8.3A10.77,10.77,0,0,1,345.8,51a6.22,6.22,0,0,1,1.54-2.56A7.43,7.43,0,0,1,350,46.7a11.66,11.66,0,0,1,3.89-.58Z"/><path class="cls-6" d="M380.2,56.78h11.43a4,4,0,0,0,2.78-.79,2.84,2.84,0,0,0,.82-2.14,3,3,0,0,0-.83-2.21,3.67,3.67,0,0,0-2.64-.83h-7.84a3.68,3.68,0,0,0-2.88,1,3.47,3.47,0,0,0-.84,2.39Zm11.6-10.66a8.46,8.46,0,0,1,6.28,2,7.47,7.47,0,0,1,1.95,5.5,6.86,6.86,0,0,1-1.95,5.19c-1.26,1.22-3.39,1.82-6.37,1.82H380.16v1.76a3.54,3.54,0,0,0,.95,2.47,3.82,3.82,0,0,0,2.89.94h14.9v4.75H384a11.19,11.19,0,0,1-3.89-.6,6.93,6.93,0,0,1-2.64-1.68,6.25,6.25,0,0,1-1.54-2.53,10.28,10.28,0,0,1-.48-3.21V54.14a10.16,10.16,0,0,1,.48-3.19,6.22,6.22,0,0,1,1.54-2.56,7.51,7.51,0,0,1,2.64-1.69,11.66,11.66,0,0,1,3.89-.58Z"/><rect class="cls-7" x="406.01" y="35.56" width="4.89" height="34.9"/><path class="cls-6" d="M438.2,46.12v4.63H424.75a3.61,3.61,0,0,0-2.46.69,2.76,2.76,0,0,0-.74,2.08,2.55,2.55,0,0,0,.73,2,4,4,0,0,0,2.73.68h5.72a12.57,12.57,0,0,1,4.18.56,6.54,6.54,0,0,1,2.58,1.54,4.93,4.93,0,0,1,1.31,2.16,9.37,9.37,0,0,1,.37,2.68,9.62,9.62,0,0,1-.43,3,5.63,5.63,0,0,1-1.4,2.33,6.76,6.76,0,0,1-2.5,1.54,10.79,10.79,0,0,1-3.65.56H417V65.71h14.16a3.75,3.75,0,0,0,2.44-.61,2.55,2.55,0,0,0,.76-2.06,2.49,2.49,0,0,0-.82-2.1,4.31,4.31,0,0,0-2.65-.61h-5.77a12.39,12.39,0,0,1-4.14-.59,6.43,6.43,0,0,1-2.57-1.54,5.49,5.49,0,0,1-1.32-2.29,10.39,10.39,0,0,1-.35-2.66,7.17,7.17,0,0,1,1.83-5.19,8.16,8.16,0,0,1,6.1-1.91Z"/><path class="cls-6" d="M42.21,40.93l-2.5-6.74H32.8l2.41,6.48h5.55A3.76,3.76,0,0,1,42.21,40.93Z"/><path class="cls-6" d="M84.64,34.19V63.51a2.13,2.13,0,0,1-.52,1.54,1.71,1.71,0,0,1-1.34.57,2,2,0,0,1-2-1.54l-9-23.69a12.6,12.6,0,0,0-3.08-5A8.14,8.14,0,0,0,63,33.54a7.9,7.9,0,0,0-6.17,2.22,8.36,8.36,0,0,0-2,5.91V63.58a2.16,2.16,0,0,1-.55,1.55,1.86,1.86,0,0,1-1.39.57,2,2,0,0,1-1.25-.4,2.72,2.72,0,0,1-.77-1.13L45.7,50.39l-2.3-6.17a2.8,2.8,0,0,1-1.73,1.62l-3.9,1.67,2,5.41,4.38,11.9.1.28a12.18,12.18,0,0,0,3.08,5,6.18,6.18,0,0,0,1.88,1.19A10,10,0,0,0,53,72a8,8,0,0,0,6.17-2.24,8.29,8.29,0,0,0,2-5.89V41.94a2.29,2.29,0,0,1,.53-1.55,1.74,1.74,0,0,1,1.36-.58,2,2,0,0,1,1.28.44,2.92,2.92,0,0,1,.8,1.15l9,23.68a12.25,12.25,0,0,0,3.09,5A7.94,7.94,0,0,0,83,72a8.11,8.11,0,0,0,6.17-2.24,8.33,8.33,0,0,0,2-5.9V34.19Z"/><path class="cls-6" d="M137.86,39.34a8,8,0,0,1,5.65,1.78,6.58,6.58,0,0,1,1.91,5,7.56,7.56,0,0,1-1.25,4.45,8.57,8.57,0,0,1-3.75,2.84l-17,7.23a2.72,2.72,0,0,0-1.16.93,2.39,2.39,0,0,0-.4,1.37,2,2,0,0,0,.57,1.54,2.41,2.41,0,0,0,1.73.54h20.52v5.45H123.83a8,8,0,0,1-5.63-1.77,6.62,6.62,0,0,1-1.88-5.06,7.48,7.48,0,0,1,1.23-4.43,8.47,8.47,0,0,1,3.8-2.86l16.88-7.23a2.34,2.34,0,0,0,1.54-2.32,2,2,0,0,0-.57-1.54,2.57,2.57,0,0,0-1.71-.54H117.43V39.34Z"/><path class="cls-6" d="M160.31,50.81a5.7,5.7,0,0,0-4.63,1.76,9,9,0,0,0-1.54,5.72A8.84,8.84,0,0,0,155.68,64a5.69,5.69,0,0,0,4.63,1.73h4.19A5.69,5.69,0,0,0,169.13,64a8.82,8.82,0,0,0,1.45-5.69,9,9,0,0,0-1.45-5.72,5.7,5.7,0,0,0-4.63-1.76Zm4.63-4.63a10.12,10.12,0,0,1,7.71,3q2.83,3.08,2.86,9.16t-2.86,9.18a10.15,10.15,0,0,1-7.71,3H159.8a10.1,10.1,0,0,1-7.72-3q-2.84-3-2.84-9.18t2.84-9.25a10.17,10.17,0,0,1,7.72-3Z"/><path class="cls-6" d="M191.34,50.81a5.63,5.63,0,0,0-4.63,1.76,8.93,8.93,0,0,0-1.55,5.72A8.79,8.79,0,0,0,186.71,64a5.65,5.65,0,0,0,4.63,1.73h4.19A5.66,5.66,0,0,0,200.16,64a8.78,8.78,0,0,0,1.54-5.69,8.92,8.92,0,0,0-1.54-5.72,5.64,5.64,0,0,0-4.63-1.76ZM196,46.18a10,10,0,0,1,7.72,3c1.91,2,2.88,5.07,2.88,9.16s-1,7.18-2.88,9.18a10.07,10.07,0,0,1-7.72,3h-5.12a10.07,10.07,0,0,1-7.71-3q-2.85-3-2.86-9.18t2.86-9.25a10.07,10.07,0,0,1,7.71-3Z"/><path class="cls-6" d="M215.51,70.46H209.7l9.64-25.92a10.34,10.34,0,0,1,2.56-4.21,6.67,6.67,0,0,1,4.77-1.54,6.81,6.81,0,0,1,5.2,1.87,7,7,0,0,1,1.73,4.92V64a1.7,1.7,0,0,0,.43,1.25,1.38,1.38,0,0,0,1.12.49,1.73,1.73,0,0,0,1.76-1.28l7.56-19.89A10.34,10.34,0,0,1,247,40.33a8.16,8.16,0,0,1,10,.33,7,7,0,0,1,1.73,4.92V70.46h-5.49V45.78a1.88,1.88,0,0,0-.44-1.31,1.4,1.4,0,0,0-1.12-.48,1.66,1.66,0,0,0-1.05.35,2.27,2.27,0,0,0-.66,1l-7.58,19.9a10.18,10.18,0,0,1-2.58,4.25A6.79,6.79,0,0,1,235,71a6.65,6.65,0,0,1-5.1-1.84,7,7,0,0,1-1.71-5V45.84a1.89,1.89,0,0,0-.45-1.31,1.53,1.53,0,0,0-1.17-.48,1.64,1.64,0,0,0-1.07.35,3,3,0,0,0-.65,1Z"/><path class="cls-6" d="M44.13,41.33a2.3,2.3,0,0,1,.63,1.76,3.5,3.5,0,0,1-.15,1l2.28,6.17a8.46,8.46,0,0,0,4.5-8,7.84,7.84,0,0,0-2.26-6,9.55,9.55,0,0,0-6.73-2.11H40.86l2.5,6.74A2.13,2.13,0,0,1,44.13,41.33Z"/><path class="cls-6" d="M43,65.06l-.11-.24H23.68a2.84,2.84,0,0,1-2.06-.7,2.34,2.34,0,0,1-.68-1.76,2.87,2.87,0,0,1,.49-1.65,3.31,3.31,0,0,1,1.37-1.09l15.79-6.7-2-5.41-16.3,7a10,10,0,0,0-4.5,3.37,9.09,9.09,0,0,0-1.54,5.31,7.86,7.86,0,0,0,2.25,6,9.49,9.49,0,0,0,6.69,2.12H47.86A6,6,0,0,1,46,70.08,12.05,12.05,0,0,1,43,65.06Z"/><polygon class="cls-6" points="15.61 34.19 15.61 40.67 33.94 40.67 31.54 34.19 15.61 34.19"/><path class="cls-6" d="M52.74,7A45.75,45.75,0,1,0,98.47,52.75h0A45.77,45.77,0,0,0,52.74,7Zm0,98.45a52.72,52.72,0,1,1,52.7-52.73v0A52.77,52.77,0,0,1,52.74,105.44Z"/></g></g></g></g></svg>